<?xml version="1.0" encoding="UTF-8"?>
<!DOCTYPE svg PUBLIC "-//W3C//DTD SVG 1.1//EN" "http://www.w3.org/Graphics/SVG/1.1/DTD/svg11.dtd">
<svg xmlns="http://www.w3.org/2000/svg" version="1.1" width="512px" height="512px" style="shape-rendering:geometricPrecision; text-rendering:geometricPrecision; image-rendering:optimizeQuality; fill-rule:evenodd; clip-rule:evenodd" xmlns:xlink="http://www.w3.org/1999/xlink">
<g><path style="opacity:0.979" fill="#030303" d="M 26.5,-0.5 C 155.167,-0.5 283.833,-0.5 412.5,-0.5C 422.993,3.16655 429.493,10.4999 432,21.5C 432.667,85.1667 432.667,148.833 432,212.5C 430.59,215.789 428.09,217.456 424.5,217.5C 420.98,216.817 418.48,214.817 417,211.5C 416.667,148.167 416.333,84.8333 416,21.5C 414.5,18.6667 412.333,16.5 409.5,15C 282.833,14.3333 156.167,14.3333 29.5,15C 26.6667,16.5 24.5,18.6667 23,21.5C 22.6667,43.5 22.3333,65.5 22,87.5C 20.7435,91.0459 18.2435,93.0459 14.5,93.5C 10.8296,93.6734 8.32963,92.0067 7,88.5C 6.33333,66.1667 6.33333,43.8333 7,21.5C 9.50702,10.4999 16.007,3.16655 26.5,-0.5 Z"/></g>
<g><path style="opacity:1" fill="#f6f3f3" d="M 424.5,217.5 C 424.5,223.833 424.5,230.167 424.5,236.5C 420.976,237.018 418.643,239.018 417.5,242.5C 416.833,253.167 416.167,263.833 415.5,274.5C 410.972,271.068 405.972,268.401 400.5,266.5C 401.588,243.92 390.921,233.587 368.5,235.5C 346.865,233.719 337.032,243.719 339,265.5C 332.088,268.703 325.588,272.537 319.5,277C 314.743,275.633 310.077,273.633 305.5,271C 295.878,268.895 288.044,271.728 282,279.5C 278,286.833 274,294.167 270,301.5C 268.592,308.942 270.259,315.609 275,321.5C 278.828,324.415 282.828,327.081 287,329.5C 287.273,336.853 287.773,344.187 288.5,351.5C 288.167,352.5 287.833,353.5 287.5,354.5C 278.923,357.367 273.089,363.033 270,371.5C 269.333,374.833 269.333,378.167 270,381.5C 272.319,387.472 275.153,393.139 278.5,398.5C 236.67,399.499 194.67,399.832 152.5,399.5C 151.327,397.496 149.66,395.996 147.5,395C 113.833,394.333 80.1667,394.333 46.5,395C 44.313,396.025 42.6464,397.525 41.5,399.5C 35.1667,399.5 28.8333,399.5 22.5,399.5C 22.6667,305.833 22.5,212.166 22,118.5C 20.2926,115.41 17.7926,113.41 14.5,112.5C 14.5,106.167 14.5,99.8333 14.5,93.5C 18.2435,93.0459 20.7435,91.0459 22,87.5C 22.3333,65.5 22.6667,43.5 23,21.5C 24.5,18.6667 26.6667,16.5 29.5,15C 156.167,14.3333 282.833,14.3333 409.5,15C 412.333,16.5 414.5,18.6667 416,21.5C 416.333,84.8333 416.667,148.167 417,211.5C 418.48,214.817 420.98,216.817 424.5,217.5 Z"/></g>
<g><path style="opacity:1" fill="#040404" d="M 43.5,44.5 C 50.8409,44.3337 58.1742,44.5003 65.5,45C 80.7869,49.7403 86.6202,59.907 83,75.5C 77.0719,87.7765 67.2386,92.7765 53.5,90.5C 53.9247,97.6154 53.4247,104.615 52,111.5C 46.8787,115.875 42.5454,115.209 39,109.5C 38.3333,89.5 38.3333,69.5 39,49.5C 40.1932,47.5029 41.6932,45.8362 43.5,44.5 Z"/></g>
<g><path style="opacity:1" fill="#040404" d="M 108.5,94.5 C 108.44,93.9569 108.107,93.6236 107.5,93.5C 106.505,98.7921 106.172,104.125 106.5,109.5C 105.309,112.874 102.809,114.54 99,114.5C 96.4972,114.01 94.4972,112.677 93,110.5C 92.3333,89.8333 92.3333,69.1667 93,48.5C 94.214,46.9512 95.714,45.7845 97.5,45C 104.5,44.3333 111.5,44.3333 118.5,45C 135.723,50.6782 140.557,61.8449 133,78.5C 129.916,82.0911 126.416,85.0911 122.5,87.5C 125.776,92.2788 129.609,96.6121 134,100.5C 139.119,109.363 136.619,113.863 126.5,114C 119.983,107.982 113.983,101.482 108.5,94.5 Z"/></g>
<g><path style="opacity:1" fill="#050505" d="M 170.5,44.5 C 191.685,43.5274 205.185,53.194 211,73.5C 210.728,103.73 195.561,116.897 165.5,113C 147.75,105.341 139.916,91.8412 142,72.5C 146.115,57.5507 155.615,48.2174 170.5,44.5 Z"/></g>
<g><path style="opacity:1" fill="#080707" d="M 236.5,44.5 C 240.426,44.0466 243.592,45.3799 246,48.5C 246.667,65.8333 246.667,83.1667 246,100.5C 240.345,114.239 230.845,117.739 217.5,111C 210.925,105.867 210.925,100.867 217.5,96C 219.167,95.3333 220.833,95.3333 222.5,96C 224.394,97.4038 226.394,98.5705 228.5,99.5C 229.442,99.3918 230.275,99.0585 231,98.5C 231.333,82.1667 231.667,65.8333 232,49.5C 233.366,47.6383 234.866,45.9717 236.5,44.5 Z"/></g>
<g><path style="opacity:1" fill="#030303" d="M 262.5,45.5 C 272.172,45.3335 281.839,45.5002 291.5,46C 295.212,48.513 296.378,52.013 295,56.5C 294.167,57.3333 293.333,58.1667 292.5,59C 285.95,60.4204 279.284,60.9204 272.5,60.5C 272.5,64.5 272.5,68.5 272.5,72.5C 278.176,72.3339 283.843,72.5006 289.5,73C 296.249,78.047 295.916,82.7137 288.5,87C 283.177,87.4994 277.844,87.666 272.5,87.5C 272.5,91.5 272.5,95.5 272.5,99.5C 278.509,99.3338 284.509,99.5005 290.5,100C 295.143,102.072 296.643,105.572 295,110.5C 293.786,112.049 292.286,113.215 290.5,114C 281.167,114.667 271.833,114.667 262.5,114C 261.5,113.167 260.5,112.333 259.5,111.5C 258.345,90.8766 258.179,70.21 259,49.5C 259.69,47.6498 260.856,46.3164 262.5,45.5 Z"/></g>
<g><path style="opacity:1" fill="#050505" d="M 329.5,44.5 C 339.571,44.0234 348.404,47.0234 356,53.5C 357.378,61.1216 354.211,64.6216 346.5,64C 332.673,56.053 322.173,59.2197 315,73.5C 313.209,91.0387 321.043,99.5387 338.5,99C 342.947,96.8689 347.114,94.3689 351,91.5C 358.451,93.203 360.451,97.5364 357,104.5C 348.512,112.834 338.345,116.001 326.5,114C 306.226,107.043 297.392,92.8768 300,71.5C 304.642,56.6859 314.476,47.6859 329.5,44.5 Z"/></g>
<g><path style="opacity:1" fill="#070707" d="M 378.5,108.5 C 378.5,92.1667 378.5,75.8333 378.5,59.5C 375.5,59.5 372.5,59.5 369.5,59.5C 364.013,57.8621 362.18,54.1955 364,48.5C 364.833,47.6667 365.667,46.8333 366.5,46C 372.73,44.8729 379.063,44.3729 385.5,44.5C 391.167,44.6667 396.833,44.8333 402.5,45C 409.626,48.6427 410.293,53.3093 404.5,59C 400.848,59.4986 397.182,59.6653 393.5,59.5C 393.667,75.8367 393.5,92.1701 393,108.5C 391.305,113.599 387.805,115.432 382.5,114C 380.536,112.549 379.203,110.716 378.5,108.5 Z"/></g>
<g><path style="opacity:1" fill="#f3f0f0" d="M 53.5,59.5 C 59.7013,58.285 64.8679,59.9517 69,64.5C 70.0274,68.1799 69.1941,71.3466 66.5,74C 62.3004,75.3674 57.9671,75.8674 53.5,75.5C 53.5,70.1667 53.5,64.8333 53.5,59.5 Z"/></g>
<g><path style="opacity:1" fill="#f1eeee" d="M 107.5,59.5 C 112.765,58.5706 117.265,59.9039 121,63.5C 122.123,66.9563 121.29,69.7897 118.5,72C 114.974,73.3368 111.308,73.8368 107.5,73.5C 107.5,68.8333 107.5,64.1667 107.5,59.5 Z"/></g>
<g><path style="opacity:1" fill="#f5f2f2" d="M 171.5,59.5 C 183.893,58.4423 192.06,63.7756 196,75.5C 196.265,92.791 187.765,100.624 170.5,99C 157.433,92.8033 153.6,82.97 159,69.5C 162.44,65.2234 166.607,61.8901 171.5,59.5 Z"/></g>
<g><path style="opacity:1" fill="#bcbaba" d="M 369.5,59.5 C 372.5,59.5 375.5,59.5 378.5,59.5C 378.5,75.8333 378.5,92.1667 378.5,108.5C 377.504,92.6754 377.17,76.6754 377.5,60.5C 374.615,60.8064 371.948,60.4731 369.5,59.5 Z"/></g>
<g><path style="opacity:1" fill="#484747" d="M 108.5,94.5 C 107.833,99.5 107.167,104.5 106.5,109.5C 106.172,104.125 106.505,98.7921 107.5,93.5C 108.107,93.6236 108.44,93.9569 108.5,94.5 Z"/></g>
<g><path style="opacity:0.983" fill="#020202" d="M 14.5,112.5 C 17.7926,113.41 20.2926,115.41 22,118.5C 22.5,212.166 22.6667,305.833 22.5,399.5C 22.3334,424.836 22.5,450.169 23,475.5C 30.3606,493.929 43.5273,500.096 62.5,494C 71.5301,489.113 77.0301,481.613 79,471.5C 79.073,461.094 79.7397,450.761 81,440.5C 85.0419,432.791 91.2086,427.624 99.5,425C 179.499,424.5 259.499,424.333 339.5,424.5C 339.756,422.208 339.423,420.041 338.5,418C 331.676,415.091 325.342,411.424 319.5,407C 314.743,408.367 310.077,410.367 305.5,413C 292.781,414.975 283.781,410.142 278.5,398.5C 275.153,393.139 272.319,387.472 270,381.5C 269.333,378.167 269.333,374.833 270,371.5C 273.089,363.033 278.923,357.367 287.5,354.5C 287.833,353.5 288.167,352.5 288.5,351.5C 287.773,344.187 287.273,336.853 287,329.5C 282.828,327.081 278.828,324.415 275,321.5C 270.259,315.609 268.592,308.942 270,301.5C 274,294.167 278,286.833 282,279.5C 288.044,271.728 295.878,268.895 305.5,271C 310.077,273.633 314.743,275.633 319.5,277C 325.588,272.537 332.088,268.703 339,265.5C 337.032,243.719 346.865,233.719 368.5,235.5C 390.921,233.587 401.588,243.92 400.5,266.5C 405.972,268.401 410.972,271.068 415.5,274.5C 415.56,275.043 415.893,275.376 416.5,275.5C 417.499,264.52 417.832,253.52 417.5,242.5C 418.643,239.018 420.976,237.018 424.5,236.5C 428.65,236.487 431.15,238.487 432,242.5C 432.5,251.827 432.666,261.161 432.5,270.5C 440.161,268.866 447.161,270.366 453.5,275C 461.252,284.504 466.585,295.171 469.5,307C 469.43,314.474 466.43,320.474 460.5,325C 457.167,327 453.833,329 450.5,331C 451.833,338.333 451.833,345.667 450.5,353C 456.291,355.98 461.457,359.813 466,364.5C 469.671,371.208 470.338,378.208 468,385.5C 463.563,393.598 458.73,401.431 453.5,409C 447.161,413.634 440.161,415.134 432.5,413.5C 432.5,417.167 432.5,420.833 432.5,424.5C 449.837,424.333 467.17,424.5 484.5,425C 500.406,431.122 507.072,442.788 504.5,460C 505.961,486.331 494.295,503.498 469.5,511.5C 396.833,511.5 324.167,511.5 251.5,511.5C 249.422,509.61 248.089,507.276 247.5,504.5C 248.053,501.413 249.72,498.913 252.5,497C 323.833,496.667 395.167,496.333 466.5,496C 483.166,490.312 490.499,478.645 488.5,461C 488.333,456.167 488.167,451.333 488,446.5C 486.5,443.667 484.333,441.5 481.5,440C 354.833,439.333 228.167,439.333 101.5,440C 99.3762,441.122 97.5429,442.622 96,444.5C 94.9197,455.116 93.9197,465.783 93,476.5C 91.2957,483.741 88.1291,490.241 83.5,496C 130.167,496.333 176.833,496.667 223.5,497C 226.789,498.41 228.456,500.91 228.5,504.5C 228.429,507.652 227.095,509.986 224.5,511.5C 163.5,511.5 102.5,511.5 41.5,511.5C 22.1841,506.014 10.6841,493.347 7,473.5C 6.33333,355.167 6.33333,236.833 7,118.5C 8.48369,115.179 10.9837,113.179 14.5,112.5 Z"/></g>
<g><path style="opacity:1" fill="#010101" d="M 60.5,129.5 C 166.501,129.333 272.501,129.5 378.5,130C 383.626,132.553 384.793,136.386 382,141.5C 381.097,142.701 379.931,143.535 378.5,144C 272.167,144.667 165.833,144.667 59.5,144C 53.8813,138.595 54.2147,133.762 60.5,129.5 Z"/></g>
<g><path style="opacity:1" fill="#040303" d="M 63.5,163.5 C 109.501,163.333 155.501,163.5 201.5,164C 212.675,167.175 219.842,174.342 223,185.5C 223.667,212.833 223.667,240.167 223,267.5C 219.214,278.952 211.381,285.785 199.5,288C 154.5,288.667 109.5,288.667 64.5,288C 53,284.5 45.5,277 42,265.5C 41.3333,238.833 41.3333,212.167 42,185.5C 45.3501,174.318 52.5167,166.984 63.5,163.5 Z"/></g>
<g><path style="opacity:1" fill="#facc59" d="M 65.5,178.5 C 109.835,178.333 154.168,178.5 198.5,179C 204,180.5 207.5,184 209,189.5C 209.667,213.833 209.667,238.167 209,262.5C 207.5,268 204,271.5 198.5,273C 154.5,273.667 110.5,273.667 66.5,273C 61.5723,271.073 58.4056,267.573 57,262.5C 56.3333,237.5 56.3333,212.5 57,187.5C 58.6878,183.315 61.5212,180.315 65.5,178.5 Z"/></g>
<g><path style="opacity:1" fill="#050401" d="M 141.5,191.5 C 158.503,191.333 175.503,191.5 192.5,192C 194.939,192.774 196.773,194.274 198,196.5C 198.667,217.167 198.667,237.833 198,258.5C 197.167,261.333 195.333,263.167 192.5,264C 175.5,264.667 158.5,264.667 141.5,264C 140.069,263.535 138.903,262.701 138,261.5C 136.367,239.897 136.033,218.231 137,196.5C 138.025,194.313 139.525,192.646 141.5,191.5 Z"/></g>
<g><path style="opacity:1" fill="#030303" d="M 247.5,192.5 C 295.834,192.333 344.168,192.5 392.5,193C 397.626,195.553 398.793,199.386 396,204.5C 395.097,205.701 393.931,206.535 392.5,207C 344.167,207.667 295.833,207.667 247.5,207C 242.225,202.122 242.225,197.289 247.5,192.5 Z"/></g>
<g><path style="opacity:1" fill="#baeb6b" d="M 151.5,207.5 C 161.833,207.5 172.167,207.5 182.5,207.5C 182.5,221.167 182.5,234.833 182.5,248.5C 172.167,248.5 161.833,248.5 151.5,248.5C 151.5,234.833 151.5,221.167 151.5,207.5 Z"/></g>
<g><path style="opacity:1" fill="#93b954" d="M 151.5,207.5 C 161.987,206.506 172.654,206.172 183.5,206.5C 183.5,220.833 183.5,235.167 183.5,249.5C 172.654,249.828 161.987,249.494 151.5,248.5C 161.833,248.5 172.167,248.5 182.5,248.5C 182.5,234.833 182.5,221.167 182.5,207.5C 172.167,207.5 161.833,207.5 151.5,207.5 Z"/></g>
<g><path style="opacity:1" fill="#040201" d="M 71.5,219.5 C 89.1698,219.333 106.836,219.5 124.5,220C 125.667,221.167 126.833,222.333 128,223.5C 128.96,236.262 128.627,248.929 127,261.5C 126.097,262.701 124.931,263.535 123.5,264C 105.742,264.972 88.0757,264.639 70.5,263C 69.6667,262.167 68.8333,261.333 68,260.5C 67.3333,248.167 67.3333,235.833 68,223.5C 68.6897,221.65 69.8564,220.316 71.5,219.5 Z"/></g>
<g><path style="opacity:1" fill="#050505" d="M 247.5,221.5 C 278.168,221.333 308.835,221.5 339.5,222C 344.986,227.081 344.653,231.748 338.5,236C 308.167,236.667 277.833,236.667 247.5,236C 242.174,230.999 242.174,226.165 247.5,221.5 Z"/></g>
<g><path style="opacity:1" fill="#595858" d="M 417.5,242.5 C 417.832,253.52 417.499,264.52 416.5,275.5C 415.893,275.376 415.56,275.043 415.5,274.5C 416.167,263.833 416.833,253.167 417.5,242.5 Z"/></g>
<g><path style="opacity:1" fill="#953b41" d="M 82.5,234.5 C 82.5,239.167 82.5,243.833 82.5,248.5C 92.8333,248.5 103.167,248.5 113.5,248.5C 113.5,243.833 113.5,239.167 113.5,234.5C 114.487,239.305 114.821,244.305 114.5,249.5C 103.5,249.5 92.5,249.5 81.5,249.5C 81.1795,244.305 81.5128,239.305 82.5,234.5 Z"/></g>
<g><path style="opacity:1" fill="#fd646e" d="M 82.5,234.5 C 92.8333,234.5 103.167,234.5 113.5,234.5C 113.5,239.167 113.5,243.833 113.5,248.5C 103.167,248.5 92.8333,248.5 82.5,248.5C 82.5,243.833 82.5,239.167 82.5,234.5 Z"/></g>
<g><path style="opacity:1" fill="#796c78" d="M 357.5,250.5 C 365.507,250.334 373.507,250.5 381.5,251C 382.333,251.833 383.167,252.667 384,253.5C 384.333,260.167 384.667,266.833 385,273.5C 385.785,275.286 386.951,276.786 388.5,278C 398.41,280.952 407.077,285.952 414.5,293C 415.873,293.875 417.373,294.375 419,294.5C 425.158,292.338 430.991,289.505 436.5,286C 440.305,284.827 443.139,285.993 445,289.5C 447.667,294.167 450.333,298.833 453,303.5C 453.667,305.833 453.667,308.167 453,310.5C 448.084,314.043 442.917,317.21 437.5,320C 435.703,321.594 434.703,323.594 434.5,326C 435.711,331.266 436.378,336.599 436.5,342C 435.857,348.192 435.357,354.359 435,360.5C 435.465,361.931 436.299,363.097 437.5,364C 442.917,366.79 448.084,369.957 453,373.5C 453.79,376.634 453.457,379.634 452,382.5C 448.858,387.963 445.358,393.13 441.5,398C 439.5,398.667 437.5,398.667 435.5,398C 430.489,394.244 424.989,391.411 419,389.5C 417.373,389.625 415.873,390.125 414.5,391C 407.077,398.048 398.41,403.048 388.5,406C 387.333,407.167 386.167,408.333 385,409.5C 384.501,414.489 384.334,419.489 384.5,424.5C 374.5,424.5 364.5,424.5 354.5,424.5C 354.897,419.041 354.397,413.708 353,408.5C 342.159,404.331 332.325,398.497 323.5,391C 321.305,389.627 318.971,389.294 316.5,390C 311.06,393.387 305.393,396.22 299.5,398.5C 297.626,398.61 296.126,397.944 295,396.5C 291.415,390.998 288.081,385.331 285,379.5C 284.333,377.833 284.333,376.167 285,374.5C 291.215,370.399 297.215,366.066 303,361.5C 302.445,349.996 302.611,338.496 303.5,327C 303.42,325.106 303.087,323.273 302.5,321.5C 298,318.415 293.333,315.582 288.5,313C 286.323,311.503 284.99,309.503 284.5,307C 287.462,299.41 291.462,292.41 296.5,286C 298.5,285.333 300.5,285.333 302.5,286C 307.825,289.245 313.325,292.079 319,294.5C 320.627,294.375 322.127,293.875 323.5,293C 331.594,285.616 340.928,280.283 351.5,277C 352.701,276.097 353.535,274.931 354,273.5C 354.333,266.833 354.667,260.167 355,253.5C 356.045,252.627 356.878,251.627 357.5,250.5 Z"/></g>
<g><path style="opacity:1" fill="#030303" d="M 360.5,303.5 C 391.187,301.695 407.02,316.028 408,346.5C 402.135,371.687 386.301,382.854 360.5,380C 338.115,372.59 328.282,357.09 331,333.5C 335.692,318.309 345.526,308.309 360.5,303.5 Z"/></g>
<g><path style="opacity:1" fill="#090909" d="M 45.5,307.5 C 114.834,307.333 184.167,307.5 253.5,308C 257.696,310.981 258.529,314.814 256,319.5C 255.097,320.701 253.931,321.535 252.5,322C 183.833,322.667 115.167,322.667 46.5,322C 40.281,317.533 39.9476,312.699 45.5,307.5 Z"/></g>
<g><path style="opacity:1" fill="#f6f3f3" d="M 362.5,318.5 C 382.575,316.587 392.741,325.587 393,345.5C 388.571,361.477 378.071,367.977 361.5,365C 346.837,357.503 342.337,346.003 348,330.5C 351.541,324.78 356.374,320.78 362.5,318.5 Z"/></g>
<g><path style="opacity:1" fill="#000000" d="M 45.5,336.5 C 119.167,336.333 192.834,336.5 266.5,337C 271.416,340.866 271.749,345.199 267.5,350C 193.5,350.667 119.5,350.667 45.5,350C 41.3041,347.019 40.4707,343.186 43,338.5C 43.9947,337.934 44.828,337.267 45.5,336.5 Z"/></g>
<g><path style="opacity:1" fill="#000000" d="M 45.5,365.5 C 115.167,365.333 184.834,365.5 254.5,366C 257.886,369.373 258.386,373.206 256,377.5C 255.25,378.126 254.416,378.626 253.5,379C 184.167,379.667 114.833,379.667 45.5,379C 41.3041,376.019 40.4707,372.186 43,367.5C 43.9947,366.934 44.828,366.267 45.5,365.5 Z"/></g>
<g><path style="opacity:1" fill="#060606" d="M 152.5,399.5 C 152.663,401.857 152.497,404.19 152,406.5C 151.097,407.701 149.931,408.535 148.5,409C 114.167,409.667 79.8333,409.667 45.5,409C 42.3799,406.592 41.0466,403.426 41.5,399.5C 42.6464,397.525 44.313,396.025 46.5,395C 80.1667,394.333 113.833,394.333 147.5,395C 149.66,395.996 151.327,397.496 152.5,399.5 Z"/></g>
<g><path style="opacity:1" fill="#dcd9ec" d="M 278.5,398.5 C 283.781,410.142 292.781,414.975 305.5,413C 310.077,410.367 314.743,408.367 319.5,407C 325.342,411.424 331.676,415.091 338.5,418C 339.423,420.041 339.756,422.208 339.5,424.5C 259.499,424.333 179.499,424.5 99.5,425C 91.2086,427.624 85.0419,432.791 81,440.5C 79.7397,450.761 79.073,461.094 79,471.5C 77.0301,481.613 71.5301,489.113 62.5,494C 43.5273,500.096 30.3606,493.929 23,475.5C 22.5,450.169 22.3334,424.836 22.5,399.5C 28.8333,399.5 35.1667,399.5 41.5,399.5C 41.0466,403.426 42.3799,406.592 45.5,409C 79.8333,409.667 114.167,409.667 148.5,409C 149.931,408.535 151.097,407.701 152,406.5C 152.497,404.19 152.663,401.857 152.5,399.5C 194.67,399.832 236.67,399.499 278.5,398.5 Z"/></g>
<g><path style="opacity:1" fill="#4b4a51" d="M 415.5,409.5 C 415.56,408.957 415.893,408.624 416.5,408.5C 417.815,413.986 417.815,419.32 416.5,424.5C 416.821,419.305 416.487,414.305 415.5,409.5 Z"/></g>
<g><path style="opacity:1" fill="#dbd8eb" d="M 415.5,409.5 C 416.487,414.305 416.821,419.305 416.5,424.5C 410.833,424.5 405.167,424.5 399.5,424.5C 399.5,422.167 399.5,419.833 399.5,417.5C 405.385,415.891 410.718,413.224 415.5,409.5 Z"/></g>
<g><path style="opacity:1" fill="#f9f6f6" d="M 247.5,504.5 C 241.167,504.5 234.833,504.5 228.5,504.5C 228.456,500.91 226.789,498.41 223.5,497C 176.833,496.667 130.167,496.333 83.5,496C 88.1291,490.241 91.2957,483.741 93,476.5C 93.9197,465.783 94.9197,455.116 96,444.5C 97.5429,442.622 99.3762,441.122 101.5,440C 228.167,439.333 354.833,439.333 481.5,440C 484.333,441.5 486.5,443.667 488,446.5C 488.167,451.333 488.333,456.167 488.5,461C 490.499,478.645 483.166,490.312 466.5,496C 395.167,496.333 323.833,496.667 252.5,497C 249.72,498.913 248.053,501.413 247.5,504.5 Z"/></g>
</svg>
