<?xml version="1.0" encoding="UTF-8"?>
<!DOCTYPE svg PUBLIC "-//W3C//DTD SVG 1.1//EN" "http://www.w3.org/Graphics/SVG/1.1/DTD/svg11.dtd">
<svg xmlns="http://www.w3.org/2000/svg" version="1.1" width="512px" height="512px" style="shape-rendering:geometricPrecision; text-rendering:geometricPrecision; image-rendering:optimizeQuality; fill-rule:evenodd; clip-rule:evenodd" xmlns:xlink="http://www.w3.org/1999/xlink">
<g><path style="opacity:0.99" fill="#000000" d="M 212.5,17.5 C 217.913,17.2288 223.246,17.7288 228.5,19C 237.173,22.9989 245.173,27.9989 252.5,34C 327.833,34.3333 403.167,34.6667 478.5,35C 491.135,38.2243 499.301,46.0577 503,58.5C 503.667,165.5 503.667,272.5 503,379.5C 498.985,392.181 490.485,400.014 477.5,403C 425.501,403.5 373.501,403.667 321.5,403.5C 322.287,412.49 322.954,421.49 323.5,430.5C 336.875,430.143 350.208,430.643 363.5,432C 390.061,439.901 403.895,457.735 405,485.5C 403.833,489.333 401.333,491.833 397.5,493C 302.833,493.667 208.167,493.667 113.5,493C 108.226,490.945 105.56,487.111 105.5,481.5C 107.767,461.095 117.767,445.929 135.5,436C 139.363,434.268 143.363,432.934 147.5,432C 160.792,430.643 174.125,430.143 187.5,430.5C 188.046,421.49 188.713,412.49 189.5,403.5C 137.499,403.667 85.4989,403.5 33.5,403C 20.5151,400.014 12.0151,392.181 8,379.5C 7.33333,272.5 7.33333,165.5 8,58.5C 11.6985,46.0577 19.8652,38.2243 32.5,35C 86.1667,34.6667 139.833,34.3333 193.5,34C 197.496,25.6887 203.829,20.1887 212.5,17.5 Z"/></g>
<g><path style="opacity:0.999" fill="#e6715c" d="M 217.5,41.5 C 222.715,43.4406 227.715,45.9406 232.5,49C 234.215,49.7771 235.215,51.1105 235.5,53C 233.232,59.0388 230.065,64.5388 226,69.5C 219.401,66.4548 213.234,62.7881 207.5,58.5C 210.861,52.8161 214.194,47.1494 217.5,41.5 Z"/></g>
<g><path style="opacity:0.761" fill="#466478" d="M 37.5,59.5 C 84.6684,58.169 132.002,58.169 179.5,59.5C 179.376,60.1067 179.043,60.44 178.5,60.5C 131.67,59.5012 84.6696,59.1679 37.5,59.5 Z"/></g>
<g><path style="opacity:1" fill="#91d0fc" d="M 37.5,59.5 C 84.6696,59.1679 131.67,59.5012 178.5,60.5C 153.228,104.945 127.728,149.279 102,193.5C 98.3516,215.353 96.3516,237.353 96,259.5C 100.128,266.489 105.961,268.322 113.5,265C 129.755,253.289 145.922,241.456 162,229.5C 194.893,172.879 227.393,116.046 259.5,59C 330.833,58.3333 402.167,58.3333 473.5,59C 475.624,60.1217 477.457,61.6217 479,63.5C 479.5,147.499 479.667,231.499 479.5,315.5C 330.167,315.5 180.833,315.5 31.5,315.5C 31.3333,231.499 31.5,147.499 32,63.5C 33.1474,61.1811 34.9807,59.8477 37.5,59.5 Z"/></g>
<g><path style="opacity:0.999" fill="#fbbe06" d="M 194.5,80.5 C 201.544,83.1895 208.21,86.6895 214.5,91C 192.207,129.085 170.04,167.251 148,205.5C 141.712,201.611 135.545,197.611 129.5,193.5C 151.443,155.942 173.11,118.275 194.5,80.5 Z"/></g>
<g><path style="opacity:1" fill="#010202" d="M 273.5,116.5 C 318.168,116.333 362.835,116.5 407.5,117C 415.94,121.454 417.774,127.954 413,136.5C 411.167,137.667 409.333,138.833 407.5,140C 363.167,140.667 318.833,140.667 274.5,140C 266.626,135.949 264.459,129.782 268,121.5C 269.812,119.7 271.645,118.033 273.5,116.5 Z"/></g>
<g><path style="opacity:1" fill="#020203" d="M 241.5,157.5 C 296.834,157.333 352.168,157.5 407.5,158C 415.94,162.454 417.774,168.954 413,177.5C 411.065,179.102 408.899,180.269 406.5,181C 351.833,181.667 297.167,181.667 242.5,181C 234.628,176.902 232.461,170.735 236,162.5C 237.812,160.7 239.645,159.033 241.5,157.5 Z"/></g>
<g><path style="opacity:1" fill="#000000" d="M 224.5,200.5 C 285.834,200.333 347.168,200.5 408.5,201C 415.489,205.128 417.322,210.961 414,218.5C 412.457,220.378 410.624,221.878 408.5,223C 347.167,223.667 285.833,223.667 224.5,223C 217.511,218.872 215.678,213.039 219,205.5C 220.73,203.598 222.563,201.931 224.5,200.5 Z"/></g>
<g><path style="opacity:0.996" fill="#c1a181" d="M 122.5,218.5 C 125.598,219.216 128.264,220.716 130.5,223C 127.971,225.029 125.304,226.862 122.5,228.5C 122.024,225.26 122.024,221.927 122.5,218.5 Z"/></g>
<g><path style="opacity:1" fill="#010203" d="M 170.5,242.5 C 249.167,242.333 327.834,242.5 406.5,243C 415.459,246.369 417.959,252.535 414,261.5C 412.269,263.617 410.102,265.117 407.5,266C 328.167,266.667 248.833,266.667 169.5,266C 162.451,261.513 160.617,255.346 164,247.5C 165.965,245.45 168.132,243.783 170.5,242.5 Z"/></g>
<g><path style="opacity:1" fill="#e2e2e2" d="M 31.5,339.5 C 180.833,339.5 330.167,339.5 479.5,339.5C 479.667,351.171 479.5,362.838 479,374.5C 477.773,376.726 475.939,378.226 473.5,379C 328.167,379.667 182.833,379.667 37.5,379C 34.9427,378.315 33.1094,376.815 32,374.5C 31.5001,362.838 31.3335,351.171 31.5,339.5 Z"/></g>
<g><path style="opacity:1" fill="#686569" d="M 214.5,402.5 C 241.835,402.333 269.169,402.5 296.5,403C 297.8,412.424 298.8,421.924 299.5,431.5C 270.167,431.5 240.833,431.5 211.5,431.5C 212.286,421.764 213.286,412.097 214.5,402.5 Z"/></g>
<g><path style="opacity:1" fill="#5b595c" d="M 151.5,455.5 C 220.501,455.333 289.501,455.5 358.5,456C 365.909,458.372 371.909,462.706 376.5,469C 295.833,469.667 215.167,469.667 134.5,469C 138.738,462.566 144.405,458.066 151.5,455.5 Z"/></g>
</svg>
