<?xml version="1.0" encoding="UTF-8"?>
<!DOCTYPE svg PUBLIC "-//W3C//DTD SVG 1.1//EN" "http://www.w3.org/Graphics/SVG/1.1/DTD/svg11.dtd">
<svg xmlns="http://www.w3.org/2000/svg" version="1.1" width="100px" height="100px" style="shape-rendering:geometricPrecision; text-rendering:geometricPrecision; image-rendering:optimizeQuality; fill-rule:evenodd; clip-rule:evenodd" xmlns:xlink="http://www.w3.org/1999/xlink">
<g><path style="opacity:0.967" fill="#ebebec" d="M 66.5,20.5 C 66.7376,22.4044 67.7376,23.7377 69.5,24.5C 69.9116,27.8025 71.245,30.4691 73.5,32.5C 77.1547,31.925 80.1547,32.925 82.5,35.5C 83.2955,43.6161 79.6288,46.9494 71.5,45.5C 71.722,48.3903 71.0553,51.057 69.5,53.5C 70.0047,54.9185 71.0047,55.5852 72.5,55.5C 78.1937,61.8604 84.1937,67.8604 90.5,73.5C 93.1667,87.5 87.5,93.1667 73.5,90.5C 67.8604,84.1937 61.8604,78.1937 55.5,72.5C 55.5852,71.0047 54.9185,70.0047 53.5,69.5C 43.8604,73.4146 34.1937,73.4146 24.5,69.5C 24.0269,68.0937 23.0269,67.427 21.5,67.5C 8.20293,57.105 4.03626,43.7717 9,27.5C 19.7758,7.83901 35.6092,2.33901 56.5,11C 60.3341,13.6682 63.6675,16.8348 66.5,20.5 Z"/></g>
<g><path style="opacity:1" fill="#474276" d="M 33.5,12.5 C 52.2485,10.9317 63.5818,19.265 67.5,37.5C 70.8333,37.5 74.1667,37.5 77.5,37.5C 77.5,38.5 77.5,39.5 77.5,40.5C 74.1667,40.5 70.8333,40.5 67.5,40.5C 66.6064,45.9842 65.4398,51.3176 64,56.5C 71.3333,63.1667 78.6667,69.8333 86,76.5C 87.5,84.3333 84.3333,87.5 76.5,86C 69.8333,78.6667 63.1667,71.3333 56.5,64C 50.8706,65.6943 45.0373,66.861 39,67.5C 19.7998,64.2925 11.1332,52.9592 13,33.5C 14.5557,28.7202 16.8891,24.3869 20,20.5C 24.1834,17.1637 28.6834,14.497 33.5,12.5 Z"/></g>
<g><path style="opacity:1" fill="#6fbdfc" d="M 59.5,55.5 C 57.8333,56.5 56.5,57.8333 55.5,59.5C 37.2704,69.0349 24.1037,64.3683 16,45.5C 14.3186,28.0174 22.152,18.0174 39.5,15.5C 52.9904,16.3212 61.3237,23.3212 64.5,36.5C 62.9223,37.2978 61.2556,37.7978 59.5,38C 58.0229,40.4449 56.1896,42.6116 54,44.5C 50.458,38.7146 46.458,33.3813 42,28.5C 39.3395,30.6708 37.1729,33.3375 35.5,36.5C 32.2317,37.487 28.8984,37.8204 25.5,37.5C 25.5,38.5 25.5,39.5 25.5,40.5C 32.9481,42.3601 38.4481,40.0268 42,33.5C 45.7864,38.7789 49.7864,43.7789 54,48.5C 56.5929,46.2019 59.0929,43.7019 61.5,41C 62.448,40.5172 63.448,40.3505 64.5,40.5C 64.2312,45.973 62.5645,50.973 59.5,55.5 Z"/></g>
<g><path style="opacity:1" fill="#d1eaff" d="M 29.5,20.5 C 31.2252,20.8425 31.7252,21.8425 31,23.5C 28.708,24.7899 26.708,26.4565 25,28.5C 22.7589,32.8205 20.9256,37.1539 19.5,41.5C 17.8854,36.4288 18.7187,31.7621 22,27.5C 24.3959,24.9334 26.8959,22.6 29.5,20.5 Z"/></g>
<g><path style="opacity:0.471" fill="#4e4e4e" d="M 66.5,20.5 C 68.2624,21.2623 69.2624,22.5956 69.5,24.5C 67.7376,23.7377 66.7376,22.4044 66.5,20.5 Z"/></g>
<g><path style="opacity:0.15" fill="#070707" d="M 69.5,24.5 C 71.7705,26.6123 73.1039,29.279 73.5,32.5C 71.245,30.4691 69.9116,27.8025 69.5,24.5 Z"/></g>
<g><path style="opacity:0.28" fill="#0c0c0c" d="M 82.5,35.5 C 86.8799,44.0614 84.2133,48.0614 74.5,47.5C 74.0372,50.221 73.3705,52.8877 72.5,55.5C 71.0047,55.5852 70.0047,54.9185 69.5,53.5C 71.0553,51.057 71.722,48.3903 71.5,45.5C 79.6288,46.9494 83.2955,43.6161 82.5,35.5 Z"/></g>
<g><path style="opacity:1" fill="#6e79bd" d="M 59.5,55.5 C 67.1361,62.967 74.9694,70.3003 83,77.5C 83.8333,82 82,83.8333 77.5,83C 70.3003,74.9694 62.967,67.1361 55.5,59.5C 56.5,57.8333 57.8333,56.5 59.5,55.5 Z"/></g>
<g><path style="opacity:0.216" fill="#1e1e1e" d="M 21.5,67.5 C 23.0269,67.427 24.0269,68.0937 24.5,69.5C 22.9731,69.573 21.9731,68.9063 21.5,67.5 Z"/></g>
<g><path style="opacity:0.264" fill="#040404" d="M 24.5,69.5 C 34.1937,73.4146 43.8604,73.4146 53.5,69.5C 54.9185,70.0047 55.5852,71.0047 55.5,72.5C 48.3074,74.4627 40.9741,74.9627 33.5,74C 30.1284,72.9811 27.1284,71.4811 24.5,69.5 Z"/></g>
<g><path style="opacity:0.243" fill="#070707" d="M 90.5,73.5 C 95.5636,78.9229 95.7303,84.5896 91,90.5C 85.0482,95.7899 79.2149,95.7899 73.5,90.5C 87.5,93.1667 93.1667,87.5 90.5,73.5 Z"/></g>
</svg>
